<svg width="567" height="555" viewBox="0 0 567 555" fill="none" xmlns="http://www.w3.org/2000/svg">
<path d="M195.966 35.9732C198.445 27.7716 200.7 23.4791 206.614 16.4922C211.869 11.3296 223.472 4.63424 223.472 4.63424C223.472 4.63424 233.308 2.11394 240.33 2.09324C248.947 2.10087 253.183 3.08193 259.85 6.32823L269.437 11.317L277.422 16.399L282.919 21.4809L284.677 24.8689C286.86 18.7407 290.557 14.5109 298.002 8.86922C305.911 4.32099 310.575 2.79826 319.297 2.09324C328.197 1.76026 332.711 2.25439 339.704 4.63424C349.272 7.34434 360.046 18.6084 370.758 34.2792C382.135 35.2583 389.434 36.1622 397.376 41.9021C405.138 46.9343 408.802 51.6463 411.572 54.6071C417.442 62.7459 418.699 65.036 421.332 71.5471C424.651 79.1401 424.115 81.5096 424.881 88.487C425.526 93.2371 425.544 97.5319 424.881 102.039C433.61 104.392 437.929 107.252 444.401 115.591C448.605 123.03 449.882 127.303 450.612 135.072C450.881 141.74 450.89 145.276 450.612 151.165C448.353 159.443 446.642 163.215 442.626 168.105C439.074 173.102 437.121 175.544 433.754 179.116C430.053 182.422 427.739 183.915 423.107 185.892C422.103 195.757 421.006 200.992 417.783 209.608C414.381 217.271 412.404 220.606 408.91 224.854C404.196 230.496 401.673 233.065 397.376 236.712C392.766 240.58 390.056 242.268 384.954 244.335C377.946 247.58 368.096 249.417 368.096 249.417C364.903 257.755 361.748 262.589 356.562 268.051C352.333 272.694 351.111 273.827 347.689 276.521C341.596 280.425 338.101 281.922 331.718 283.296C321.28 284.944 315.882 285.062 306.875 284.143L298.716 282.449L292.505 279.815L286.295 276.427L280.971 273.039L279.623 272.192C277.137 275.827 273.19 278.942 266.948 282.449C252.251 286.975 243.902 286.914 228.795 282.449C221.386 279.656 217.69 277.438 211.937 272.286C204.935 264.382 202.265 259.352 199.516 249.417C191.576 248.623 187.307 247.535 179.996 244.335C172.725 240.392 169.194 237.801 164.025 232.477C157.176 225.443 154.15 221.142 149.829 212.996C145.033 202.644 143.326 196.51 141.843 185.045C136.66 182.283 134.116 180.448 130.309 176.575C125.797 172.092 123.659 169.307 120.549 163.87C117.572 158.086 116.346 154.595 115.225 147.777C114.54 141.162 116.113 130.837 116.113 130.837C116.113 130.837 117 121.52 122.323 114.744C127.647 107.968 132.461 106.365 140.956 103.733C140.987 98.4441 141.176 95.4756 141.843 90.181C142.965 82.2438 143.906 77.796 146.28 69.8531C148.649 63.3015 150.632 59.9784 155.152 54.6071C160.523 49.1215 163.85 46.5497 170.236 42.7491C178.942 38.3595 184.653 36.9831 195.966 35.9732Z" fill="#A882A0"/>
<path d="M195.966 35.9732C198.445 27.7716 200.7 23.4791 206.614 16.4922C211.869 11.3296 223.472 4.63424 223.472 4.63424C223.472 4.63424 233.308 2.11394 240.33 2.09324C248.947 2.10087 253.183 3.08193 259.85 6.32823L269.437 11.317L277.422 16.399L282.919 21.4809L284.677 24.8689M195.966 35.9732C204.027 35.9215 208.505 36.2278 216.374 37.6671C221.963 39.4452 224.991 40.8071 229.683 44.4431C236.885 51.3877 239.866 55.9144 243.879 64.7711M195.966 35.9732C184.653 36.9831 178.942 38.3595 170.236 42.7491C163.85 46.5497 160.523 49.1215 155.152 54.6071C150.632 59.9784 148.649 63.3015 146.28 69.8531C143.906 77.796 142.965 82.2438 141.843 90.181C141.176 95.4756 140.987 98.4441 140.956 103.733M140.956 103.733C141.745 113.289 143.454 118.458 148.054 127.449C151.483 131.938 153.835 134.146 158.701 137.613C165.027 141.532 168.513 142.948 174.672 144.389M140.956 103.733C132.461 106.365 127.647 107.968 122.323 114.744C117 121.52 116.113 130.837 116.113 130.837C116.113 130.837 114.54 141.162 115.225 147.777C116.346 154.595 117.572 158.086 120.549 163.87C123.659 169.307 125.797 172.092 130.309 176.575C134.116 180.448 136.66 182.283 141.843 185.045M141.843 185.045C147.734 187.36 151.04 187.178 156.927 187.586C162.265 187.812 165.017 187.824 169.349 187.586C174.171 187.264 176.721 186.756 180.883 185.045C186.392 182.149 190.643 179.116 194.192 174.881C196.519 172.104 197.218 170.332 199.516 166.411C201.982 162.202 203.158 159.786 204.839 155.4M141.843 185.045C143.326 196.51 145.033 202.644 149.829 212.996C154.15 221.142 157.176 225.443 164.025 232.477C169.194 237.801 172.725 240.392 179.996 244.335C187.307 247.535 191.576 248.623 199.516 249.417M199.516 249.417C208.345 249.052 212.712 248.063 219.035 244.335C224.578 241.242 227.246 239.164 231.457 235.018C236.391 229.346 238.572 226.191 241.217 220.619M199.516 249.417C202.265 259.352 204.935 264.382 211.937 272.286C217.69 277.438 221.386 279.656 228.795 282.45C243.902 286.914 252.251 286.975 266.948 282.45C273.19 278.942 277.137 275.827 279.623 272.192M282.919 209.608V263.816C282.317 267.034 281.305 269.732 279.623 272.192M282.919 209.608C280.836 201.281 279.444 195.665 273.159 190.127C267.862 185.07 263.871 184.876 258.075 183.351C251.147 181.974 247.256 181.904 240.33 183.351C230.479 186.347 226.148 188.646 219.923 193.515M282.919 209.608V83.405M282.919 209.608C289.58 197.006 293.64 191.507 301.551 185.045C305.308 182.831 307.591 182.097 312.198 181.657C319.374 181.402 322.889 181.761 328.169 183.351C336.819 186.761 340.621 189.007 345.914 193.515M282.919 83.405C279.175 99.9819 274.641 106.964 259.85 113.05C248.069 115.62 240.576 114.78 228.795 112.203C221.496 108.507 218.217 106.936 213.712 102.039C207.041 94.6194 204.266 90.1848 201.29 81.711M282.919 83.405C288.622 102.003 293.533 109.138 306.875 113.05C317.074 115.411 322.903 115.4 333.493 113.05C341.934 109.69 345.741 107.235 351.238 102.039C357.845 94.4901 360.669 90.0137 364.547 81.711M282.919 83.405V31.7382C283.392 29.157 283.951 26.9079 284.677 24.8689M370.758 34.2792C360.046 18.6084 349.272 7.34434 339.704 4.63424C332.711 2.25439 328.197 1.76026 319.297 2.09324C310.575 2.79826 305.911 4.32099 298.002 8.86922C290.557 14.5109 286.86 18.7407 284.677 24.8689M370.758 34.2792C360.22 34.7966 355.147 35.0417 347.689 38.5141C340.987 41.6856 337.902 44.3973 333.493 47.8311C327.721 53.9658 325.034 57.7058 321.958 64.7711M370.758 34.2792C382.135 35.2583 389.434 36.1622 397.376 41.9021C405.138 46.9343 408.802 51.6463 411.572 54.6071C417.442 62.7459 418.699 65.036 421.332 71.547C424.651 79.1401 424.115 81.5096 424.881 88.487C425.526 93.2371 425.544 97.5319 424.881 102.039M424.881 102.039C424.169 110.546 423.391 114.623 421.332 120.673C418.381 127.207 416.196 130.314 411.572 135.072C403.375 142.724 398.935 144.311 391.165 144.389M424.881 102.039C433.61 104.392 437.929 107.252 444.401 115.591C448.605 123.03 449.882 127.303 450.612 135.072C450.881 141.74 450.89 145.276 450.612 151.165C448.353 159.443 446.642 163.215 442.626 168.105C439.074 173.102 437.121 175.544 433.754 179.116C430.053 182.422 427.739 183.915 423.107 185.892M423.107 185.892C416.199 187.568 412.312 188.826 405.361 188.433C398.103 188.506 394.205 187.151 387.616 185.045C381.737 182.183 379.084 181.16 375.194 177.422C371.104 173.782 368.585 171.493 366.322 168.105C363.469 163.835 362.347 160.373 360.998 155.4M423.107 185.892C422.103 195.757 421.006 200.992 417.783 209.608C414.381 217.271 412.404 220.606 408.91 224.854C404.196 230.496 401.673 233.065 397.376 236.712C392.766 240.58 390.056 242.268 384.954 244.335C377.946 247.58 368.096 249.417 368.096 249.417M368.096 249.417C368.096 249.417 354.914 248.57 350.351 246.876C344.003 244.519 341.816 242.826 337.042 239.253C331.016 233.2 328.428 229.342 325.507 221.466M368.096 249.417C364.903 257.755 361.748 262.589 356.562 268.051C352.333 272.694 351.111 273.827 347.689 276.521C341.596 280.425 338.101 281.922 331.718 283.296C321.28 284.944 315.882 285.062 306.875 284.143L298.716 282.45L292.505 279.815L286.295 276.427L280.971 273.039L279.623 272.192" stroke="#403635" stroke-opacity="0.5" stroke-width="4"/>
<path d="M143.539 483.979C145.111 504.834 148.253 548.236 148.253 555H268.94L241.597 453.541C247.133 398.49 237.765 370.896 195.397 328.408L141.653 250.623C136.371 242.289 122.796 240.477 115.253 241.323C115.253 241.323 104.965 244.196 101.11 248.932C97.2554 253.668 97.2966 266.039 101.11 275.142L143.539 354.618C110.5 358.882 96.1584 351.895 78.4814 321.644L52.0812 248.932L46.424 203.275C42.9658 184.954 25.0623 168.374 18.1381 167.765C11.2138 167.156 0.820697 172.478 2.1093 173.103L2.1093 254.85L32.281 368.146L143.539 483.979Z" fill="#A882A0" stroke="#403635" stroke-opacity="0.5" stroke-width="4"/>
<path d="M423.461 483.979C421.889 504.834 418.747 548.236 418.747 555H298.06L325.403 453.541C319.867 398.49 329.235 370.896 371.603 328.408L425.347 250.623C430.629 242.289 444.204 240.477 451.747 241.323C451.747 241.323 462.035 244.196 465.89 248.932C469.745 253.668 469.703 266.039 465.89 275.142L423.461 354.618C456.5 358.882 470.842 351.895 488.519 321.644L514.919 248.932L520.576 203.275C524.034 184.954 541.938 168.374 548.862 167.765C555.786 167.156 566.179 172.478 564.891 173.103L564.891 254.85L534.719 368.146L423.461 483.979Z" fill="#A882A0" stroke="#403635" stroke-opacity="0.5" stroke-width="4"/>
</svg>
