<svg width="303" height="332" viewBox="0 0 303 332" fill="none" xmlns="http://www.w3.org/2000/svg">
<path d="M103.598 22.055C104.994 17.2135 106.265 14.6796 109.598 10.555C112.559 7.50748 119.098 3.55504 119.098 3.55504C119.098 3.55504 124.641 2.06726 128.598 2.05504C133.453 2.05954 135.841 2.63868 139.597 4.55504M103.598 22.055C108.14 22.0245 110.663 22.2054 115.098 23.055C118.247 24.1047 119.954 24.9086 122.598 27.055C126.656 31.1545 128.336 33.8268 130.598 39.055M103.598 22.055C97.2219 22.6512 94.0036 23.4637 89.0975 26.055C85.4992 28.2986 83.6243 29.8168 80.5975 33.055C78.0503 36.2259 76.9325 38.1875 75.5975 42.055C74.2599 46.7439 73.7297 49.3696 73.0975 54.055C72.7214 57.1806 72.6148 58.9329 72.5975 62.055M72.5975 62.055C73.042 67.6961 74.0053 70.7478 76.5975 76.055C78.5298 78.7052 79.8555 80.0086 82.5975 82.055C86.162 84.3687 88.1264 85.2044 91.5975 86.055M72.5975 62.055C67.8103 63.6088 65.0975 64.555 62.0975 68.555C59.0975 72.555 58.5975 78.055 58.5975 78.055C58.5975 78.055 57.7112 84.1501 58.0975 88.055C58.7289 92.0802 59.4199 94.1409 61.0975 97.555C62.8501 100.765 64.0552 102.409 66.5975 105.055C68.7429 107.342 70.1766 108.424 73.0975 110.055M73.0975 110.055C76.417 111.422 78.2799 111.314 81.5975 111.555C84.6058 111.689 86.1564 111.696 88.5975 111.555C91.315 111.365 92.752 111.065 95.0975 110.055C98.2022 108.346 100.598 106.555 102.598 104.055C103.909 102.416 104.303 101.37 105.598 99.055C106.988 96.5702 107.65 95.1444 108.598 92.555M73.0975 110.055C73.9332 116.823 74.8948 120.445 77.5975 126.555C80.0329 131.364 81.7378 133.903 85.5975 138.055C88.5106 141.198 90.5001 142.727 94.5975 145.055C98.7176 146.945 101.123 147.587 105.598 148.055M105.598 148.055C110.573 147.84 113.034 147.256 116.598 145.055C119.721 143.23 121.224 142.003 123.598 139.555C126.378 136.207 127.607 134.344 129.098 131.055M105.598 148.055C107.147 153.92 108.652 156.889 112.598 161.555C115.839 164.597 117.922 165.906 122.098 167.555C130.61 170.19 135.315 170.227 143.598 167.555C149.496 164.083 151.758 161.262 152.598 156.555V124.555M152.598 124.555C151.424 119.64 150.64 116.324 147.098 113.055C144.113 110.07 141.864 109.955 138.598 109.055C134.693 108.243 132.501 108.201 128.598 109.055C123.046 110.824 120.606 112.181 117.098 115.055M152.598 124.555V50.055M152.598 124.555C156.352 117.116 158.639 113.87 163.098 110.055C165.215 108.748 166.501 108.315 169.098 108.055C173.141 107.905 175.122 108.116 178.098 109.055C182.972 111.068 185.114 112.394 188.098 115.055M152.598 50.055C150.488 59.8407 147.933 63.9623 139.597 67.555C132.959 69.0721 128.736 68.5765 122.098 67.055C117.984 64.8732 116.136 63.946 113.598 61.055C109.839 56.6751 108.274 54.0573 106.598 49.055M152.598 50.055C155.811 61.0336 158.579 65.2455 166.098 67.555C171.845 68.9487 175.13 68.9422 181.098 67.555C185.854 65.5715 188 64.1221 191.098 61.055C194.821 56.5988 196.412 53.9563 198.598 49.055M152.598 50.055V19.555C153.666 13.4517 155.506 10.4935 161.098 6.05504C165.555 3.37013 168.183 2.47123 173.098 2.05504C178.113 1.85847 180.657 2.15017 184.598 3.55504C189.99 5.15487 196.061 11.8043 202.098 21.055M202.098 21.055C196.159 21.3605 193.3 21.5052 189.098 23.555C185.321 25.4272 183.582 27.028 181.098 29.055C177.845 32.6765 176.331 34.8843 174.598 39.055M202.098 21.055C208.509 21.6331 212.622 22.1666 217.098 25.555C221.472 28.5257 223.536 31.3072 225.098 33.055C228.406 37.8596 229.114 39.2114 230.598 43.055C232.468 47.5374 232.166 48.9361 232.598 53.055C232.961 55.8591 232.971 58.3944 232.598 61.055M232.598 61.055C232.196 66.0771 231.758 68.4838 230.598 72.055C228.934 75.9125 227.703 77.7465 225.098 80.555C220.478 85.0724 217.976 86.0092 213.598 86.055M232.598 61.055C237.517 62.4442 239.95 64.1326 243.598 69.055C245.967 73.4462 246.686 75.9688 247.098 80.555C247.249 84.4916 247.254 86.579 247.098 90.055C245.825 94.9419 244.86 97.1686 242.598 100.055C240.595 103.005 239.495 104.447 237.598 106.555C235.512 108.507 234.208 109.388 231.598 110.555M231.598 110.555C227.705 111.545 225.514 112.287 221.598 112.055C217.508 112.098 215.311 111.298 211.598 110.055C208.285 108.366 206.789 107.762 204.598 105.555C202.292 103.407 200.873 102.055 199.598 100.055C197.99 97.5347 197.358 95.4908 196.598 92.555M231.598 110.555C231.032 116.379 230.414 119.469 228.598 124.555C226.68 129.079 225.566 131.048 223.598 133.555C220.941 136.886 219.519 138.403 217.098 140.555C214.5 142.839 212.973 143.835 210.098 145.055C206.148 146.971 200.598 148.055 200.598 148.055M200.598 148.055C200.598 148.055 193.169 147.555 190.598 146.555C187.02 145.164 185.788 144.165 183.098 142.055C179.702 138.482 178.244 136.204 176.598 131.555M200.598 148.055C198.798 152.977 197.02 155.831 194.098 159.055C191.714 161.796 191.026 162.465 189.098 164.055C185.664 166.36 183.694 167.244 180.098 168.055C174.215 169.028 171.173 169.097 166.098 168.555" stroke="black" stroke-width="4"/>
<path d="M77.0579 287.029C77.8913 299.362 79.5579 325.029 79.5579 329.029H143.558L129.058 269.029C131.994 236.473 127.026 220.155 104.558 195.029L76.0579 149.029C73.2568 144.1 66.058 143.029 62.058 143.529C62.058 143.529 56.6021 145.228 54.558 148.029C52.5138 150.829 52.5356 158.145 54.558 163.529L77.0579 210.529C59.5373 213.05 51.9321 208.918 42.558 191.029L28.558 148.029L25.558 121.029C23.7241 110.194 14.2299 100.389 10.558 100.029C6.88608 99.6684 1.37462 102.816 2.05796 103.186L2.05796 151.529L18.058 218.529L77.0579 287.029Z" stroke="black" stroke-width="4"/>
<path d="M225.5 287.029C224.667 299.362 223 325.029 223 329.029H159L173.5 269.029C170.564 236.473 175.532 220.155 198 195.029L226.5 149.029C229.301 144.1 236.5 143.029 240.5 143.529C240.5 143.529 245.956 145.228 248 148.029C250.044 150.829 250.022 158.145 248 163.529L225.5 210.529C243.021 213.05 250.626 208.918 260 191.029L274 148.029L277 121.029C278.834 110.194 288.328 100.389 292 100.029C295.672 99.6684 301.183 102.816 300.5 103.186L300.5 151.529L284.5 218.529L225.5 287.029Z" stroke="black" stroke-width="4"/>
</svg>
